<svg width="42" height="42" viewBox="0 0 42 42" fill="none" xmlns="http://www.w3.org/2000/svg">
<path fill-rule="evenodd" clip-rule="evenodd" d="M42 21C42 32.5979 32.5979 42 21 42C9.40203 42 0 32.5979 0 21C0 9.40203 9.40203 0 21 0C32.5979 0 42 9.40203 42 21ZM21.0979 23.9847C24.9684 18.5112 25.1392 15.1939 21.0979 9.33333C16.9793 15.3189 17.5103 18.4916 21.0979 23.9847ZM19.2599 31.1146C19.8751 24.4391 18.3645 21.4809 11.9343 18.4262C11.3603 25.6691 13.4064 28.1513 19.2599 31.1146ZM22.9608 31.1146C22.3456 24.4391 23.8563 21.4809 30.2865 18.4262C30.8604 25.6691 28.8144 28.1513 22.9608 31.1146Z" fill="#42A919"/>
</svg>
